<?xml version="1.0" encoding="utf-8"?>
<!-- Generator: Adobe Illustrator 15.1.0, SVG Export Plug-In . SVG Version: 6.00 Build 0)  -->
<!DOCTYPE svg PUBLIC "-//W3C//DTD SVG 1.1//EN" "http://www.w3.org/Graphics/SVG/1.1/DTD/svg11.dtd">
<svg version="1.1" id="Warstwa_1" xmlns="http://www.w3.org/2000/svg" xmlns:xlink="http://www.w3.org/1999/xlink" x="0px" y="0px"
	 width="399.152px" height="144.916px" viewBox="0 0 399.152 144.916" enable-background="new 0 0 399.152 144.916"
	 xml:space="preserve">
<g>
	<path d="M159.745,107.645c-31.703,0-34.153-20.266-34.153-33.813v-46.68h17.676v51.067c0,5.656,1.741,9.892,5.179,12.6
		c3.265,2.576,7.083,3.882,11.31,3.882c4.201,0,8.064-1.292,11.437-3.868c3.564-2.708,5.364-6.944,5.364-12.614V35.696
		c0-2.408,0.79-4.382,2.398-6.074c1.566-1.644,3.571-2.472,6.116-2.472h8.854v46.68C193.926,87.761,191.438,107.645,159.745,107.645
		"/>
	<path d="M91.629,106.182V0.387h9.364c2.43,0,4.463,0.797,6.196,2.443c1.691,1.618,2.526,3.571,2.526,5.956v97.396"/>
	<path fill="#009EE0" d="M208.861,106.182V0.387h9.358c2.439,0,4.468,0.797,6.199,2.443c1.698,1.618,2.528,3.571,2.528,5.956v97.396
		"/>
	<path d="M66.804,35.083c-6.038-7.845-16.077-11.649-25.476-11.649c-17.874,0-23.948,9.454-23.948,9.454V8.786
		c0-2.401-0.849-4.417-2.573-6.146c-1.743-1.733-3.755-2.576-6.161-2.576h-8.722V71.21c0,14.286,5.868,36.571,39.456,36.571
		c33.575,0,36.575-29.002,36.575-41.687C75.956,53.4,72.868,42.975,66.804,35.083 M38.614,93.356
		c-16.388,0-21.063-12.298-21.063-27.495c0-15.173,4.741-27.48,21.063-27.48c16.314,0,21.056,12.308,21.056,27.48
		C59.669,81.058,54.995,93.356,38.614,93.356"/>
	<path fill="#009EE0" d="M276.715,23.304c-32.437,0-34.983,20.808-34.983,35.411v16.97l0.075,0.033
		c0.519,13.911,5.028,31.898,34.88,31.898c32.45,0,34.988-20.822,34.988-35.427V58.714C311.675,44.527,309.16,23.304,276.715,23.304
		 M288.409,90.016c-3.453,2.679-7.397,4.042-11.704,4.042c-4.321,0-8.218-1.368-11.576-4.071c-3.52-2.831-5.302-7.274-5.302-13.204
		V50.263c0.65-4.031,2.358-7.185,5.17-9.366c3.462-2.684,7.406-4.052,11.708-4.052c4.321,0,8.223,1.375,11.571,4.076
		c3.529,2.823,5.313,7.281,5.313,13.206v26.521C292.928,84.676,291.216,87.836,288.409,90.016"/>
	<path fill="#009EE0" d="M398.751,96.648l0.048-1.802l-0.048-0.004V60.059c0-14.282-5.878-36.573-39.45-36.573
		c-33.583,0-36.578,29.009-36.578,41.696c0,12.683,3.085,23.117,9.161,31.014c6.028,7.835,16.066,11.647,25.473,11.647
		c14.766,0,21.469-6.449,23.355-8.685l-0.387,5.661c-0.037,1.962-0.099,3.755-0.184,5.255c-0.165,2.576-0.425,4.486-0.703,5.557
		c-1.123,4.189-3.175,7.255-6.218,9.515c-2.948,2.175-7.401,3.42-13.524,3.411c-5.623,0-9.802-1.217-12.727-3.401v-0.01
		c-1.977-1.472-3.293-3.812-3.812-7.581l-0.227-1.623l-17.473-2.595l-0.057,2.453c-0.005,0.316-0.015,0.623-0.015,0.934
		c0,4.415,0.773,8.406,2.368,11.887c1.595,3.482,4.023,6.43,7.203,8.737c6.435,4.708,14.794,6.986,24.832,6.981
		c8.439,0.005,15.699-1.595,21.704-4.878c5.935-3.235,10.397-7.783,13.171-13.482c2.316-4.812,3.548-11.817,3.943-21.162
		l0.104-5.887h0.037 M360.064,92.894c-16.313,0-21.058-12.303-21.058-27.479c0-15.197,4.675-27.495,21.058-27.495
		c16.393,0,21.059,12.298,21.059,27.495C381.123,80.591,376.382,92.894,360.064,92.894"/>
</g>
</svg>
